<svg version="1.1" xmlns="http://www.w3.org/2000/svg" xmlns:xlink="http://www.w3.org/1999/xlink" width="500.000000pt" height="500.000000pt" viewBox="0,0,256,256"><g fill="#4a9aa9" fill-rule="nonzero" stroke="none" stroke-width="1" stroke-linecap="butt" stroke-linejoin="miter" stroke-miterlimit="10" stroke-dasharray="" stroke-dashoffset="0" font-family="none" font-weight="none" font-size="none" text-anchor="none" style="mix-blend-mode: normal"><g transform="translate(-0.13063,0.11571) scale(0.512,0.512)"><g transform="translate(0,500) scale(0.1,-0.1)"><path d="M2280,4899c-359,-34 -724,-153 -1015,-331c-581,-355 -987,-920 -1119,-1557c-43,-208 -51,-287 -50,-516c0,-248 15,-374 69,-590c170,-676 641,-1256 1270,-1565c175,-86 296,-130 472,-175c216,-54 346,-69 593,-69c247,0 377,15 593,69c891,224 1586,954 1767,1854c107,533 39,1059 -200,1546c-337,687 -1000,1182 -1755,1309c-203,34 -432,44 -625,25zM3708,3618c17,-17 17,-1689 0,-1706c-9,-9 -132,-12 -493,-12c-384,0 -485,-3 -499,-13c-28,-20 -19,-194 12,-254c45,-86 116,-136 222,-155l60,-10v-49v-49h-510h-510v49v50l48,7c114,16 213,93 246,191c22,63 22,196 0,217c-14,14 -73,16 -498,16c-361,0 -485,3 -494,12c-17,17 -17,1689 0,1706c17,17 2399,17 2416,0z"></path><path d="M1375,3518c-3,-7 -4,-350 -3,-763l3,-750h1125h1125v760v760l-1123,3c-893,2 -1124,0 -1127,-10zM1920,3128v-183l155,-89c85,-48 155,-93 155,-99c0,-20 -84,-90 -139,-116c-47,-22 -70,-26 -146,-26c-82,0 -96,3 -158,34c-78,39 -129,91 -166,170c-22,47 -26,70 -26,141c0,72 4,94 29,147c50,110 169,199 269,202l27,1zM2087,3285c157,-73 240,-243 199,-405c-9,-35 -18,-65 -20,-67c-2,-2 -68,35 -147,81l-144,84l-3,166l-2,166h32c18,0 57,-11 85,-25zM3395,3123c-3,-13 -11,-23 -18,-20c-6,2 -54,-52 -104,-119c-102,-135 -128,-158 -179,-157c-53,2 -76,23 -150,143c-98,157 -109,158 -228,13c-42,-51 -79,-93 -83,-93c-4,0 -14,7 -24,16c-17,15 -14,21 62,113c87,105 120,131 161,131c54,0 78,-22 155,-142c79,-123 105,-145 140,-117c9,8 56,67 106,133c67,89 86,120 76,127c-17,10 -13,13 41,31c45,15 45,15 48,-10c2,-13 1,-35 -3,-49zM2880,2675v-285h-50h-50v285v285h50h50zM3380,2640v-250h-55h-55v250v250h55h55zM2638,2593l2,-203h-55h-55v206v205l53,-3l52,-3zM3130,2535v-145h-55h-55v138c0,76 3,142 7,145c3,4 28,7 55,7h48zM2220,2455c10,-12 10,-18 0,-30c-10,-13 -54,-15 -275,-15c-221,0 -265,2 -275,15c-10,12 -10,18 0,30c10,13 54,15 275,15c221,0 265,-2 275,-15zM2220,2335c10,-12 10,-18 0,-30c-10,-13 -54,-15 -275,-15c-221,0 -265,2 -275,15c-10,12 -10,18 0,30c10,13 54,15 275,15c221,0 265,-2 275,-15z"></path></g></g></g></svg>