<?xml version="1.0" standalone="no"?>
<!DOCTYPE svg PUBLIC "-//W3C//DTD SVG 20010904//EN"
 "http://www.w3.org/TR/2001/REC-SVG-20010904/DTD/svg10.dtd">
<svg version="1.0" xmlns="http://www.w3.org/2000/svg"
 width="360.000000pt" height="360.000000pt" viewBox="0 0 360.000000 360.000000"
 preserveAspectRatio="xMidYMid meet">

<g transform="translate(0.000000,360.000000) scale(0.100000,-0.100000)"
fill="#000000" stroke="none">
<path d="M1625 3010 c-91 -15 -230 -57 -327 -100 -258 -113 -495 -350 -608
-608 -84 -189 -116 -360 -107 -562 16 -335 170 -649 429 -869 144 -123 303
-204 506 -258 88 -24 114 -27 282 -26 167 0 194 2 282 26 202 54 362 135 506
258 198 168 327 378 399 647 24 88 26 114 26 282 0 168 -2 194 -26 282 -72
269 -201 479 -399 647 -145 123 -307 206 -506 257 -77 21 -128 26 -247 29 -82
2 -177 0 -210 -5z m517 -845 c-4 -44 -3 -45 25 -45 27 0 28 1 25 45 l-4 45
171 0 171 0 0 -125 0 -125 -29 0 c-33 0 -85 -33 -115 -73 -33 -45 -29 -132 7
-180 32 -42 74 -67 112 -67 l25 0 0 -125 0 -125 -171 0 -172 0 6 45 c7 45 7
45 -24 45 -31 0 -31 0 -26 -45 l4 -45 -539 0 -538 0 0 125 c0 120 1 125 21
125 37 0 89 32 115 69 32 47 33 128 3 177 -24 40 -77 74 -113 74 l-26 0 0 125
0 125 538 0 537 0 -3 -45z"/>
<path d="M2141 1995 c-2 -73 -1 -75 23 -75 22 0 24 5 28 48 5 80 0 102 -26
102 -22 0 -23 -4 -25 -75z"/>
<path d="M1365 1795 l0 -265 323 0 322 0 0 265 0 265 -322 0 -323 0 0 -265z
m615 0 l0 -235 -290 0 -290 0 0 235 0 235 290 0 290 0 0 -235z"/>
<path d="M2140 1800 c0 -70 0 -70 28 -70 27 0 27 0 27 70 0 70 0 70 -27 70
-28 0 -28 0 -28 -70z"/>
<path d="M2140 1604 c0 -75 0 -75 25 -72 14 2 25 6 25 11 0 4 0 36 0 72 0 63
-1 65 -25 65 -24 0 -25 -2 -25 -76z"/>
</g>
</svg>
