<svg version="1.1" xmlns="http://www.w3.org/2000/svg" xmlns:xlink="http://www.w3.org/1999/xlink" width="360.000000pt" height="360.000000pt" viewBox="0,0,256,256"><g fill="#60625c" fill-rule="nonzero" stroke="none" stroke-width="1" stroke-linecap="butt" stroke-linejoin="miter" stroke-miterlimit="10" stroke-dasharray="" stroke-dashoffset="0" font-family="none" font-weight="none" font-size="none" text-anchor="none" style="mix-blend-mode: normal"><g transform="translate(0.1944,0.09256) scale(0.71111,0.71111)"><g transform="translate(0,360) scale(0.1,-0.1)"><path d="M1625,3010c-91,-15 -230,-57 -327,-100c-258,-113 -495,-350 -608,-608c-84,-189 -116,-360 -107,-562c16,-335 170,-649 429,-869c144,-123 303,-204 506,-258c88,-24 114,-27 282,-26c167,0 194,2 282,26c202,54 362,135 506,258c198,168 327,378 399,647c24,88 26,114 26,282c0,168 -2,194 -26,282c-72,269 -201,479 -399,647c-145,123 -307,206 -506,257c-77,21 -128,26 -247,29c-82,2 -177,0 -210,-5zM2142,2165c-4,-44 -3,-45 25,-45c27,0 28,1 25,45l-4,45h171h171v-125v-125h-29c-33,0 -85,-33 -115,-73c-33,-45 -29,-132 7,-180c32,-42 74,-67 112,-67h25v-125v-125h-171h-172l6,45c7,45 7,45 -24,45c-31,0 -31,0 -26,-45l4,-45h-539h-538v125c0,120 1,125 21,125c37,0 89,32 115,69c32,47 33,128 3,177c-24,40 -77,74 -113,74h-26v125v125h538h537z"></path><path d="M2141,1995c-2,-73 -1,-75 23,-75c22,0 24,5 28,48c5,80 0,102 -26,102c-22,0 -23,-4 -25,-75z"></path><path d="M1365,1795v-265h323h322v265v265h-322h-323zM1980,1795v-235h-290h-290v235v235h290h290z"></path><path d="M2140,1800c0,-70 0,-70 28,-70c27,0 27,0 27,70c0,70 0,70 -27,70c-28,0 -28,0 -28,-70z"></path><path d="M2140,1604c0,-75 0,-75 25,-72c14,2 25,6 25,11c0,4 0,36 0,72c0,63 -1,65 -25,65c-24,0 -25,-2 -25,-76z"></path></g></g></g></svg>