<svg version="1.1" xmlns="http://www.w3.org/2000/svg" xmlns:xlink="http://www.w3.org/1999/xlink" width="920.000000pt" height="600.000000pt" viewBox="0,0,256,166.95313"><g fill="#4da3ae" fill-rule="nonzero" stroke="none" stroke-width="1" stroke-linecap="butt" stroke-linejoin="miter" stroke-miterlimit="10" stroke-dasharray="" stroke-dashoffset="0" font-family="none" font-weight="none" font-size="none" text-anchor="none" style="mix-blend-mode: normal"><g transform="translate(-0.04725,0.01777) scale(0.27826,0.27826)"><g transform="translate(0,600) scale(0.1,-0.1)"><path d="M4350,5790c-535,-52 -1028,-245 -1455,-569c-141,-106 -422,-390 -528,-533c-297,-398 -468,-814 -543,-1324c-28,-183 -25,-571 5,-763c70,-456 239,-874 499,-1236c85,-119 145,-189 266,-313c449,-461 990,-734 1641,-829c168,-24 562,-24 730,0c448,66 830,211 1191,452c564,378 978,956 1149,1607c220,839 49,1710 -473,2407c-97,131 -361,401 -492,505c-383,304 -845,502 -1340,576c-156,24 -501,34 -650,20zM4860,4665c349,-96 609,-358 707,-712c25,-87 28,-115 28,-253c0,-138 -3,-166 -27,-252c-51,-181 -134,-324 -263,-453c-183,-183 -408,-281 -670,-292c-192,-8 -364,35 -536,133c-225,130 -394,350 -466,610c-25,90 -28,114 -27,259c1,131 5,174 22,238c109,398 410,672 821,748c25,4 107,6 181,4c106,-3 155,-9 230,-30zM4799,2390c648,-69 1215,-465 1508,-1055l54,-110l-73,-68c-40,-37 -122,-105 -183,-151c-579,-438 -1308,-600 -2028,-451c-413,85 -855,314 -1165,602l-73,68l54,110c263,529 754,910 1322,1026c184,38 399,48 584,29z"></path></g></g></g></svg>